name ./resultDataOpenSim/trcMotMarkerGrf/sub06/grf-02-04.mot
datacolumns 19
datarows 10
range 0.49200000 0.52800000
endheader

                time	     ground_force_vx	     ground_force_vy	     ground_force_vz	     ground_force_px	     ground_force_py	     ground_force_pz	   l_ground_force_vx	   l_ground_force_vy	   l_ground_force_vz	   l_ground_force_px	   l_ground_force_py	   l_ground_force_pz	     ground_torque_x	     ground_torque_y	     ground_torque_z	   l_ground_torque_x	   l_ground_torque_y	   l_ground_torque_z	
          0.49200000	         60.22837128	        441.14130682	        -28.26312669	         -0.76419312	          0.00000000	          0.13452272	          0.00000000	          0.00000000	          0.00000000	          0.00000000	          0.00000000	          0.00000000	          0.00000000	          0.54918836	          0.00000000	          0.00000000	          0.00000000	          0.00000000	
          0.49600000	         63.47155542	        457.08135310	        -31.08974049	         -0.76372793	          0.00000000	          0.13445726	          0.00000000	          0.00000000	          0.00000000	          0.00000000	          0.00000000	          0.00000000	          0.00000000	          0.38357240	          0.00000000	          0.00000000	          0.00000000	          0.00000000	
          0.50000000	         67.19033325	        473.49488246	        -33.60716023	         -0.76333004	          0.00000000	          0.13433600	          0.00000000	          0.00000000	          0.00000000	          0.00000000	          0.00000000	          0.00000000	          0.00000000	          0.22138918	          0.00000000	          0.00000000	          0.00000000	          0.00000000	
          0.50400000	         71.38114839	        490.27141073	        -35.54910615	         -0.76298189	          0.00000000	          0.13415978	          0.00000000	          0.00000000	          0.00000000	          0.00000000	          0.00000000	          0.00000000	          0.00000000	          0.09129627	          0.00000000	          0.00000000	          0.00000000	          0.00000000	
          0.50800000	         75.96289342	        507.29013714	        -36.75625980	         -0.76266163	          0.00000000	          0.13392407	          0.00000000	          0.00000000	          0.00000000	          0.00000000	          0.00000000	          0.00000000	          0.00000000	          0.01808984	          0.00000000	          0.00000000	          0.00000000	          0.00000000	
          0.51200000	         80.81212244	        524.41605779	        -37.20363966	         -0.76235897	          0.00000000	          0.13362675	          0.00000000	          0.00000000	          0.00000000	          0.00000000	          0.00000000	          0.00000000	          0.00000000	          0.01703998	          0.00000000	          0.00000000	          0.00000000	          0.00000000	
          0.51600000	         85.81048966	        541.51305079	        -36.99746127	         -0.76207389	          0.00000000	          0.13327807	          0.00000000	          0.00000000	          0.00000000	          0.00000000	          0.00000000	          0.00000000	          0.00000000	          0.09030230	          0.00000000	          0.00000000	          0.00000000	          0.00000000	
          0.52000000	         90.88393373	        558.46388462	        -36.34664084	         -0.76180555	          0.00000000	          0.13289918	          0.00000000	          0.00000000	          0.00000000	          0.00000000	          0.00000000	          0.00000000	          0.00000000	          0.22647296	          0.00000000	          0.00000000	          0.00000000	          0.00000000	
          0.52400000	         96.01811138	        575.16941232	        -35.51952046	         -0.76154717	          0.00000000	          0.13251338	          0.00000000	          0.00000000	          0.00000000	          0.00000000	          0.00000000	          0.00000000	          0.00000000	          0.40338613	          0.00000000	          0.00000000	          0.00000000	          0.00000000	
          0.52800000	        101.25073570	        591.53223062	        -34.79194944	         -0.76129774	          0.00000000	          0.13214094	          0.00000000	          0.00000000	          0.00000000	          0.00000000	          0.00000000	          0.00000000	          0.00000000	          0.59330556	          0.00000000	          0.00000000	          0.00000000	          0.00000000	
